<?xml version="1.0" standalone="no"?>
<!DOCTYPE svg PUBLIC "-//W3C//DTD SVG 20010904//EN"
 "http://www.w3.org/TR/2001/REC-SVG-20010904/DTD/svg10.dtd">
<svg version="1.0" xmlns="http://www.w3.org/2000/svg"
 width="1268.000000pt" height="1268.000000pt" viewBox="0 0 1268.000000 1268.000000"
 preserveAspectRatio="xMidYMid meet">
<metadata>
Created by potrace 1.14, written by Peter Selinger 2001-2017
</metadata>
<g transform="translate(0.000000,1268.000000) scale(0.100000,-0.100000)"
fill="#000000" stroke="none">
<path d="M9967 12494 c-1 -1 -103 -5 -227 -8 -124 -4 -274 -9 -335 -12 -60 -2
-168 -6 -240 -9 -381 -14 -566 -24 -575 -30 -5 -3 -11 -1 -15 5 -4 6 -11 8
-16 4 -12 -7 -50 -10 -219 -19 -69 -3 -159 -8 -200 -11 -41 -2 -109 -6 -150
-9 -71 -3 -197 -11 -320 -20 -51 -3 -193 -15 -250 -21 -14 -1 -25 -3 -25 -4 0
0 -21 -3 -47 -5 -25 -2 -61 -6 -80 -9 -18 -3 -51 -8 -73 -11 -137 -21 -158
-25 -275 -49 -41 -8 -86 -17 -100 -20 -21 -4 -306 -77 -350 -90 -8 -3 -46 -14
-85 -25 -38 -12 -79 -25 -90 -30 -11 -5 -69 -26 -130 -46 -60 -21 -123 -43
-140 -50 -16 -7 -70 -30 -120 -51 -49 -20 -137 -59 -194 -85 -57 -27 -106 -49
-108 -49 -3 0 -18 -9 -34 -21 -16 -11 -29 -18 -29 -15 0 4 -18 -5 -40 -19 -22
-14 -40 -23 -40 -20 0 3 -17 -6 -37 -20 -21 -14 -41 -25 -46 -25 -5 0 -23 -11
-41 -25 -18 -14 -35 -23 -38 -20 -3 3 -11 -1 -18 -10 -7 -8 -16 -15 -21 -15
-14 0 -366 -228 -393 -255 -7 -8 -16 -11 -20 -8 -3 3 -8 -2 -12 -11 -3 -9 -11
-16 -17 -16 -6 0 -17 -7 -26 -15 -9 -8 -61 -50 -116 -92 -55 -42 -102 -79
-105 -83 -3 -3 -18 -16 -34 -28 -72 -55 -185 -161 -351 -327 -173 -173 -298
-305 -290 -305 2 0 -9 -13 -23 -28 -54 -56 -92 -102 -92 -111 0 -5 -4 -11 -9
-13 -9 -3 -115 -136 -151 -188 -8 -12 -33 -47 -56 -78 -66 -93 -204 -306 -203
-316 0 -5 -4 -12 -9 -15 -29 -18 -352 -639 -352 -676 0 -3 -10 -27 -22 -53
-12 -26 -23 -51 -24 -57 -1 -5 -14 -39 -29 -75 -27 -68 -96 -271 -135 -400
-25 -81 -29 -94 -34 -125 -2 -11 -15 -61 -28 -110 -14 -50 -24 -98 -22 -108 1
-9 -2 -17 -7 -17 -5 0 -8 -3 -7 -7 1 -5 -1 -24 -5 -43 -13 -64 -17 -85 -27
-140 -18 -105 -22 -125 -25 -153 -17 -123 -26 -187 -30 -208 -3 -13 -7 -51
-10 -86 -3 -34 -8 -72 -10 -84 -16 -84 -24 -574 -12 -689 5 -45 22 -138 26
-147 3 -5 9 -28 26 -93 10 -36 22 -76 28 -90 5 -14 12 -33 13 -42 3 -16 50
-114 99 -208 60 -115 236 -322 355 -419 24 -19 48 -40 54 -46 6 -6 47 -36 91
-66 44 -30 82 -57 85 -60 14 -17 292 -160 385 -199 11 -4 36 -15 55 -23 54
-23 249 -92 290 -102 8 -2 53 -15 100 -28 89 -26 210 -55 258 -63 15 -2 38 -7
52 -10 36 -8 53 -12 96 -18 22 -4 64 -11 94 -16 90 -15 265 -32 350 -34 l45
-1 0 1477 c1 812 3 1479 5 1482 3 2 25 7 50 11 25 4 68 11 95 16 28 6 64 12
80 14 28 4 92 14 125 20 8 1 40 6 70 10 30 4 66 10 80 12 40 6 88 13 123 17
17 2 68 9 112 15 44 6 100 13 125 16 53 5 108 12 172 19 26 3 73 9 105 12 32
3 74 7 93 9 19 2 67 7 105 10 39 3 90 8 115 10 44 4 167 14 245 20 22 2 74 6
115 9 41 3 116 8 165 11 50 3 126 8 170 10 44 3 131 7 193 9 63 3 116 7 119
10 3 3 13 1 23 -4 10 -5 21 -6 25 -2 3 4 46 8 93 8 48 1 179 5 292 10 113 4
642 8 1175 9 l971 0 -1 2048 c0 1358 3 2047 10 2047 7 0 7 3 0 8 -5 4 -10 25
-10 47 l0 40 -73 0 c-41 0 -74 -1 -75 -1z"/>
<path d="M7610 7519 c0 -52 -1 -718 -2 -1481 -2 -1298 -3 -1388 -19 -1393 -9
-3 -34 -8 -55 -11 -22 -2 -46 -6 -54 -9 -15 -5 -81 -15 -130 -21 -14 -1 -25
-3 -25 -4 0 -1 -9 -3 -20 -4 -11 -2 -40 -6 -65 -11 -25 -4 -56 -9 -70 -10 -14
-2 -38 -5 -55 -8 -16 -3 -55 -9 -85 -13 -30 -4 -64 -8 -75 -10 -21 -3 -85 -11
-150 -19 -22 -3 -60 -7 -85 -11 -25 -3 -61 -7 -80 -9 -85 -9 -148 -16 -180
-20 -19 -2 -64 -7 -100 -10 -36 -3 -81 -7 -100 -10 -19 -2 -75 -7 -125 -11
-95 -7 -121 -9 -225 -18 -92 -8 -304 -21 -483 -31 -38 -2 -71 -5 -74 -8 -2 -3
-17 -1 -33 3 -16 4 -31 5 -34 2 -4 -3 -43 -7 -89 -8 -45 -2 -138 -5 -207 -8
-434 -18 -1476 -25 -2200 -17 -102 2 -194 2 -206 2 -18 -1 -20 -7 -19 -72 1
-38 -3 -73 -7 -75 -5 -3 -5 -11 -1 -17 10 -16 11 -137 1 -143 -5 -3 -5 -11 -1
-17 10 -16 11 -137 1 -143 -5 -3 -5 -11 -1 -17 10 -16 11 -137 1 -143 -5 -3
-5 -11 -1 -17 10 -16 11 -137 1 -143 -5 -3 -5 -11 -1 -17 10 -16 11 -137 1
-143 -5 -3 -5 -11 -1 -17 10 -16 11 -137 1 -143 -5 -3 -5 -11 -1 -17 10 -16
11 -137 1 -143 -5 -3 -5 -11 -1 -17 10 -16 11 -137 1 -143 -5 -3 -5 -11 -1
-17 10 -16 11 -137 1 -143 -5 -3 -5 -11 -1 -17 10 -16 11 -137 1 -143 -5 -3
-5 -11 -1 -17 9 -15 11 -137 3 -142 -6 -4 -5 -50 0 -50 1 0 3 -30 3 -68 1 -37
-2 -67 -6 -67 -5 0 -5 -5 -1 -12 10 -16 11 -128 2 -135 -5 -2 -5 -10 -1 -16
10 -16 10 -167 0 -167 -5 0 -5 -6 -1 -12 11 -17 11 -138 1 -138 -5 0 -5 -6 -1
-12 10 -17 11 -128 1 -135 -4 -2 -4 -10 0 -16 10 -16 10 -167 0 -167 -5 0 -5
-6 -1 -12 11 -17 11 -138 1 -138 -5 0 -5 -6 -1 -12 10 -17 11 -128 1 -135 -4
-2 -4 -10 0 -16 10 -16 10 -167 0 -167 -5 0 -5 -6 -1 -12 11 -17 11 -138 1
-138 -5 0 -5 -6 -1 -12 10 -17 11 -128 1 -135 -4 -2 -4 -10 0 -16 10 -16 10
-167 0 -167 -5 0 -5 -6 -1 -12 11 -18 11 -168 0 -168 -5 0 -4 -6 1 -12 5 -7 8
-41 8 -75 l-1 -62 245 5 c360 7 447 11 462 19 6 5 10 4 6 -1 -3 -5 16 -8 41
-6 26 1 94 4 152 6 322 13 414 17 505 22 55 3 143 7 195 10 171 7 274 13 350
18 41 4 118 8 170 11 160 10 188 12 199 19 6 4 11 2 11 -4 0 -6 4 -9 8 -6 5 3
42 7 83 11 185 14 327 28 409 40 14 2 45 7 70 10 25 3 72 11 105 17 33 5 74
12 90 15 17 2 46 8 65 13 19 5 55 12 80 15 24 4 48 9 52 12 5 2 18 6 31 9 55
10 164 37 215 53 18 5 36 10 40 11 15 2 118 32 142 41 14 5 34 11 45 13 11 3
50 16 88 29 37 14 67 23 67 20 0 -3 6 0 13 6 8 6 22 12 33 14 10 2 33 10 49
17 17 7 35 14 40 15 6 2 30 12 55 23 49 22 80 34 95 37 11 3 77 33 235 107
110 52 310 157 395 208 28 17 68 40 89 51 21 11 44 25 50 30 18 14 179 119
183 119 2 0 9 4 16 10 7 5 59 44 117 86 93 68 277 210 290 224 3 3 34 30 70
60 35 30 77 67 92 82 15 16 29 28 32 28 8 0 285 279 351 354 33 37 69 77 80
90 39 43 166 200 225 277 31 40 79 107 128 179 20 30 39 57 42 60 6 6 119 181
151 235 13 22 29 47 34 56 71 118 225 405 231 429 0 3 13 32 29 65 52 114 68
150 71 164 1 7 7 18 13 24 6 6 11 17 11 25 0 8 6 28 14 45 43 102 144 404 161
482 1 6 7 30 14 55 7 25 15 53 17 64 2 10 8 33 14 51 6 18 13 42 15 54 9 38
13 55 28 116 8 33 18 78 23 100 4 22 8 45 9 50 16 72 28 134 31 150 2 11 5 31
8 45 8 35 17 99 21 145 2 22 5 40 5 40 2 0 4 17 15 110 3 33 8 76 10 95 11
100 18 274 18 435 0 221 -2 253 -20 335 -17 83 -18 86 -34 140 -7 25 -13 47
-13 50 -1 3 -9 28 -19 55 -96 262 -250 482 -467 665 -36 30 -67 57 -70 60 -12
14 -142 100 -150 100 -4 0 -10 4 -12 8 -14 36 -518 275 -623 296 -5 1 -23 7
-40 13 -94 35 -423 117 -514 129 -25 3 -47 7 -51 9 -3 2 -26 6 -50 10 -25 3
-56 8 -70 10 -31 5 -180 22 -200 24 -8 0 -50 3 -92 7 l-78 6 0 -93z"/>
</g>
</svg>
