<svg xmlns="http://www.w3.org/2000/svg" xmlns:xlink="http://www.w3.org/1999/xlink" viewBox="0 0 478 779.25"><defs><style>.cls-1{isolation:isolate;}.cls-2{fill:url(#linear-gradient);}.cls-3,.cls-6,.cls-8,.cls-9{mix-blend-mode:multiply;}.cls-3{fill:url(#linear-gradient-2);}.cls-4{fill:url(#linear-gradient-3);}.cls-5{fill:url(#linear-gradient-4);}.cls-6{fill:url(#linear-gradient-5);}.cls-7{fill:url(#linear-gradient-6);}.cls-8{fill:url(#linear-gradient-7);}.cls-9{fill:url(#linear-gradient-8);}</style><linearGradient id="linear-gradient" x1="324.7" y1="391.26" x2="466.61" y2="566.41" gradientUnits="userSpaceOnUse"><stop offset="0" stop-color="#34d399"/><stop offset="1" stop-color="#59fb67"/></linearGradient><linearGradient id="linear-gradient-2" x1="399.91" y1="523.77" x2="341.1" y2="441.95" xlink:href="#linear-gradient"/><linearGradient id="linear-gradient-3" x1="777.25" y1="220.47" x2="285.72" y2="323.15" xlink:href="#linear-gradient"/><linearGradient id="linear-gradient-4" x1="760.58" y1="-1139.28" x2="902.49" y2="-964.13" gradientTransform="translate(1435.95 -530.47) rotate(180)" xlink:href="#linear-gradient"/><linearGradient id="linear-gradient-5" x1="835.79" y1="-1006.76" x2="776.98" y2="-1088.59" gradientTransform="translate(1435.95 -530.47) rotate(180)" xlink:href="#linear-gradient"/><linearGradient id="linear-gradient-6" x1="782.27" y1="662.65" x2="290.74" y2="765.33" xlink:href="#linear-gradient"/><linearGradient id="linear-gradient-7" x1="811.04" y1="371.87" x2="518.83" y2="129.56" xlink:href="#linear-gradient"/><linearGradient id="linear-gradient-8" x1="275.82" y1="680.83" x2="364.15" y2="778.98" xlink:href="#linear-gradient"/></defs><g class="cls-1"><g id="Layer_1" data-name="Layer 1"><path class="cls-2" d="M419.91,323.7v257C387.16,579.3,293,565.68,267.48,498.16v-.3A98.26,98.26,0,0,1,262,476.71v-.29c-.29-2.9-.58-6.09-.58-9.27a6.39,6.39,0,0,1-.29-2.32,345.17,345.17,0,0,1,47.24-174.74C339.64,308.34,380.21,318.49,419.91,323.7Z" transform="translate(-261 -110.38)"/><path class="cls-3" d="M419.91,393.25v37.38c-.58,0-1.45.29-2,.29-69,13-127.8,33.91-150.4,66.94A98.26,98.26,0,0,1,262,476.71v-.29c-.29-2.9-.58-6.09-.58-9.27,22.61-38.84,85.78-60,156.49-73.61C418.46,393.54,419.33,393.25,419.91,393.25Z" transform="translate(-261 -110.38)"/><path class="cls-4" d="M739,110.38V375.71c-6,0-14-.4-23.54-.4-33.12-.4-85-.8-141.65,1.6-50.27,2.39-104.93,7.18-154,16.36a17.07,17.07,0,0,1-2,.4C342,408,278.16,432,261.4,471.07a.39.39,0,0,0-.4.4v-8A284.38,284.38,0,0,1,264.19,418a341.93,341.93,0,0,1,85.39-187.13A342.11,342.11,0,0,1,579,117.56C628.08,114.37,681.94,111.58,739,110.38Z" transform="translate(-261 -110.38)"/><path class="cls-5" d="M580.16,676.37v-257c32.74,1.45,126.93,15.07,152.43,82.59v.29a99.09,99.09,0,0,1,5.51,21.16v.29c.29,2.9.58,6.08.58,9.27a6.39,6.39,0,0,1,.29,2.32A345.2,345.2,0,0,1,691.73,710C660.43,691.72,619.86,681.58,580.16,676.37Z" transform="translate(-261 -110.38)"/><path class="cls-6" d="M580.16,606.82V569.43c.58,0,1.45-.29,2-.29,69-13,127.8-33.9,150.4-66.94a99.09,99.09,0,0,1,5.51,21.16v.29c.29,2.9.58,6.08.58,9.27-22.61,38.83-85.78,60-156.49,73.61C581.61,606.53,580.74,606.82,580.16,606.82Z" transform="translate(-261 -110.38)"/><path class="cls-7" d="M739,528.53v8A284.38,284.38,0,0,1,735.81,582a151.71,151.71,0,0,1-4,22.75,201.75,201.75,0,0,1-5.19,22.34,300.53,300.53,0,0,1-30.32,77.41,348.45,348.45,0,0,1-45.89,65A343.37,343.37,0,0,1,421,882.44c-49.08,3.59-102.94,6-160,7.18V624.29h9.18c31.52.8,90.57,1.6,156.4-1.2,50.28-2.39,104.54-7.18,153.62-16.36.4,0,1.59-.4,2-.4,47.48-8.77,90.18-21.54,119.7-39.1,2.8-2,5.59-3.59,8.38-5.59,13.17-9.17,22.75-19.95,28.33-31.91v-.4C738.6,528.93,739,528.93,739,528.53Z" transform="translate(-261 -110.38)"/><path class="cls-8" d="M739,110.38V375.71c-6,0-14-.4-23.54-.4-33.12-.4-85-.8-141.65,1.6Z" transform="translate(-261 -110.38)"/><path class="cls-9" d="M426.58,623.09,261,889.62V624.29h9.18C301.7,625.09,360.75,625.89,426.58,623.09Z" transform="translate(-261 -110.38)"/></g></g></svg>