<svg xmlns="http://www.w3.org/2000/svg" viewBox="0 0 538 108" width="184.37" height="37">
	<path fill="#ffffff" d="m122.5 81v-53.4h22.8q10.2 0 15.7 4.5 5.5 4.5 5.5 12.9 0 8.4-5.5 13-5.5 4.5-15.7 4.5h-9v18.5zm21.4-43.5h-7.7v15h7.7q4 0 6.1-2 2.2-1.9 2.2-5.5 0-3.6-2.2-5.5-2.1-2-6.1-2zm32.3 43.5v-53.4h37.2v10.4h-23.4v9.9h22v10.4h-22v12.3h24.1v10.4zm92.5-14v11.1q-3.8 1.9-7.9 2.9-4.1 1-8.6 1-13.4 0-21.2-7.4-7.8-7.5-7.8-20.3 0-12.8 7.8-20.2 7.8-7.5 21.2-7.5 4.5 0 8.6 1 4.1 1 7.9 3v11q-3.8-2.6-7.6-3.8-3.7-1.2-7.8-1.2-7.4 0-11.6 4.7-4.2 4.7-4.2 13 0 8.3 4.2 13 4.2 4.8 11.6 4.8 4.1 0 7.8-1.3 3.8-1.2 7.6-3.8zm11.4-7.4v-32h13.8v32q0 6.6 2.1 9.5 2.2 2.8 7.1 2.8 5 0 7.1-2.8 2.2-2.9 2.2-9.5v-32h13.8v32q0 11.3-5.7 16.9-5.7 5.5-17.4 5.5-11.6 0-17.3-5.5-5.7-5.6-5.7-16.9zm59.5 21.4v-53.4h13.8v43h24.2v10.4zm82.5 0l-3.4-9.7h-21.5l-3.4 9.7h-13.9l19.8-53.4h16.5l19.8 53.4zm-14.2-40.9l-7.3 21.3h14.6zm48.9 11.1h5.8q4.3 0 6.2-1.6 1.9-1.6 1.9-5.3 0-3.6-1.9-5.2-1.9-1.6-6.2-1.6h-5.8zm3.9 9.5h-3.9v20.3h-13.8v-53.5h21q10.6 0 15.5 3.6 4.9 3.5 4.9 11.2 0 5.3-2.5 8.7-2.6 3.4-7.7 5 2.8 0.6 5 2.9 2.3 2.3 4.6 6.9l7.4 15.2h-14.6l-6.5-13.3q-2-4-4-5.5-2.1-1.5-5.4-1.5zm38.7 20.3v-53.5h37.2v10.4h-23.4v10h22v10.4h-22v12.2h24.2v10.5z"/>
	<ellipse fill="#414558" cx="57.1" cy="54.2" rx="56.1" ry="52.8"/>
	<path fill="#ffffff" d="m34.1 85.1c-0.7-2.2 0.1-4.4 0.1-4.4 0.9-2.2 2.8-3.4 3-3.3 0.1 0.1-2.2 2-1.7 3.7 0.2 0.7 0.9 1.1 1.5 1.4q0.6 0.3 1.5 0.7c5.3 2.2 14.4 2.7 20.6-2.9 6.8-6.1 8.2-17.8 2.4-24.8-4-4.8-11.6-7.4-17.6-5.1-1.6 0.6-2.9 1.5-3.7 2.3q-0.3-0.5-0.6-0.9c-1.2-1.4-5.5-6.4-5.6-13.5 0-1.2-0.1-5.2 2.1-9q2.1-3.8 5.7-6.2 3.6-2.4 8.4-3.6 4.7-1.1 10.1-1.1 5.2 0 9.2 0.6 4.1 0.6 7.5 1.9v14q-1.7-1.2-3.7-2.1-2-0.8-4.1-1.4-2.1-0.6-4.2-0.9-2-0.3-3.9-0.3-2.6 0-4.7 0.5-2.1 0.5-3.5 1.4-1.5 0.9-2.3 2.1-0.8 1.2-0.8 2.8 0 1.7 0.9 3 0.9 1.3 2.6 2.5 1.6 1.2 3.9 2.4 2.4 1.1 5.3 2.3 4 1.7 7.2 3.6 3.2 1.9 5.5 4.3 2.3 2.3 3.5 5.4 1.2 3 1.2 7.1c0 0.6-0.1 5.1-2.1 9.4-3.8 7.9-12.1 10.9-14.8 12-12.5 4.6-27.3 1.2-28.9-3.9z"/>
	<path fill="#ffffff" d="m57.5 69.3c2 0.8-2.8 2-2.2 3.6 0.7 1.5 2.8 3.6 1.8 4.3q-7.2 1.5-7.8-1.8-0.1-0.8 0-1.6c0.3-2.6 2.4-4.6 1-4.8-0.9-0.2-2.1 2.3-3.1 4.6-0.9 1.9-1.6 3.6-2.2 3.9-1.4 0.8-10.6 7-8.3 2.5q2.4-4.4 2.8-10.5l1.5-0.9 2.7-1.5h-4.5q-1.7 3.8-1.3 4.9c0.4 1-2.6 1.5-1.6-1q1.1-2.5 2.1-8.7 1.4-8 3.4-4.5 0.3 0.5 0.8 1.1c1.6-1.7 3.9-2.8 6.5-2.8 4.9 0 8.9 4 8.9 8.9 0 1.4-0.4 2.8-1 4.1q0.3 0.1 0.5 0.2zm6.3-0.9c-0.5 3.9-1.9 7.1-2.4 8.1l-1-0.2c0.3-1.6 0.9-6.2-0.2-10.8-0.8-4-2.7-6.9-5.4-8.7-2.4-1.7-4.9-2.4-7.3-1.9-1.7 0.2-2.8 0.9-3.4 1.3l-3-2.8c1-1.1 4.1-4 10-2.9 8.3 1.6 13.9 9.4 12.7 17.9z"/>
</svg>