<svg version="1.2" xmlns="http://www.w3.org/2000/svg" viewBox="0 0 196 317" width="196" height="317"><defs><linearGradient id="P" gradientUnits="userSpaceOnUse"/><linearGradient id="g1" x1="66.1" y1="85.4" x2="122.1" y2="154.6" href="#P"><stop stop-color="#56c694"/><stop offset="1" stop-color="#7cc85a"/></linearGradient><linearGradient id="g2" x1="27.2" y1="190.5" x2="3.9" y2="158.1" href="#P"><stop stop-color="#56c694"/><stop offset="1" stop-color="#7cc85a"/></linearGradient><linearGradient id="g3" x1="219.6" y1="105.9" x2="25.4" y2="146.4" href="#P"><stop stop-color="#56c694"/><stop offset="1" stop-color="#7cc85a"/></linearGradient><linearGradient id="g4" x1="130" y1="231.8" x2="73.9" y2="162.6" href="#P"><stop stop-color="#56c694"/><stop offset="1" stop-color="#7cc85a"/></linearGradient><linearGradient id="g5" x1="168.9" y1="126.7" x2="192.1" y2="159.1" href="#P"><stop stop-color="#56c694"/><stop offset="1" stop-color="#7cc85a"/></linearGradient><linearGradient id="g6" x1="222.3" y1="284" x2="28.1" y2="324.6" href="#P"><stop stop-color="#56c694"/><stop offset="1" stop-color="#7cc85a"/></linearGradient><linearGradient id="g7" x1="180.5" y1="156.7" x2="65" y2="61" href="#P"><stop stop-color="#56c694"/><stop offset="1" stop-color="#7cc85a"/></linearGradient><linearGradient id="g8" x1="55.2" y1="188.9" x2="90.1" y2="227.7" href="#P"><stop stop-color="#56c694"/><stop offset="1" stop-color="#7cc85a"/></linearGradient></defs><style>.a{fill:url(#g1)}.b{mix-blend-mode:multiply;fill:url(#g2)}.c{fill:url(#g3)}.d{fill:url(#g4)}.e{mix-blend-mode:multiply;fill:url(#g5)}.f{fill:url(#g6)}.g{mix-blend-mode:multiply;fill:url(#g7)}.h{mix-blend-mode:multiply;fill:url(#g8)}</style><path class="a" d="m66.4 88.9v101.6c-13-0.6-50.2-6-60.3-32.6v-0.2c-1-2.6-1.7-5.3-2.2-8.3v-0.1c-0.1-1.2-0.2-2.4-0.2-3.7-0.1-0.3-0.1-0.6-0.1-0.9 0-25.1 6.8-48.7 18.7-69.1 12.3 7.3 28.4 11.3 44.1 13.3z"/><path class="b" d="m66.4 116.4v14.8c-0.3 0-0.6 0.1-0.8 0.1-27.3 5.2-50.5 13.4-59.5 26.4-1-2.6-1.7-5.3-2.2-8.3v-0.1c-0.1-1.2-0.2-2.4-0.2-3.7 9-15.3 33.9-23.7 61.9-29.1 0.2 0 0.5-0.1 0.8-0.1z"/><path class="c" d="m192.4 4.6v104.9c-2.3 0-5.5-0.2-9.3-0.2-13.1-0.1-33.5-0.3-55.9 0.7-19.9 0.9-41.5 2.8-60.9 6.4-0.1 0-0.5 0.2-0.8 0.2-29.9 5.7-55.2 15.1-61.8 30.6 0 0-0.1 0-0.1 0.1v-3.1c0-6.2 0.3-12.2 1.2-18 2.1-17.3 7.4-33.6 15.6-48.4 5.1-9.2 11.1-17.8 18.2-25.5 22.5-25.3 54.4-42 90.6-44.8 19.4-1.3 40.7-2.4 63.2-2.9z"/><path class="d" d="m129.7 228.3v-101.6c12.9 0.6 50.1 6 60.2 32.6v0.2c1 2.6 1.7 5.3 2.2 8.3v0.1c0.1 1.2 0.2 2.4 0.2 3.7 0.1 0.3 0.1 0.6 0.1 0.9 0 25.1-6.7 48.7-18.6 69.1-12.4-7.3-28.4-11.3-44.1-13.3z"/><path class="e" d="m129.7 200.8v-14.8c0.2 0 0.5-0.1 0.8-0.1 27.2-5.1 50.5-13.4 59.4-26.4 1 2.6 1.7 5.3 2.2 8.3v0.1c0.1 1.2 0.2 2.4 0.2 3.7-8.9 15.3-33.9 23.7-61.8 29.1-0.3 0-0.6 0.1-0.8 0.1z"/><path class="f" d="m192.4 169.9v3.1c0 6.2-0.3 12.2-1.2 18-0.3 3-0.8 6-1.6 9-0.5 3-1.3 6-2.1 8.8-2.5 10.7-6.6 21-11.9 30.6-5.1 9.1-11.1 17.8-18.2 25.7-22.5 25.1-54.4 41.8-90.6 44.6-19.4 1.4-40.7 2.4-63.2 2.8v-104.8h3.6c12.4 0.3 35.8 0.6 61.8-0.5 19.9-0.9 41.3-2.8 60.7-6.4 0.1 0 0.6-0.2 0.8-0.2 18.7-3.5 35.6-8.5 47.3-15.4 1.1-0.8 2.2-1.5 3.3-2.2 5.2-3.7 9-7.9 11.2-12.7v-0.1c0-0.2 0.1-0.2 0.1-0.3z"/><path class="g" d="m192.4 4.6v104.9c-2.3 0-5.5-0.2-9.3-0.2-13.1-0.1-33.5-0.3-55.9 0.7z"/><path class="h" d="m69 207.2l-65.4 105.3v-104.8h3.6c12.4 0.3 35.8 0.6 61.8-0.5z"/></svg>