<svg xmlns="http://www.w3.org/2000/svg" xmlns:xlink="http://www.w3.org/1999/xlink" viewBox="0 0 892.03 174"><defs><style>.cls-1{isolation:isolate;}.cls-2{fill:#ffffff;}.cls-3{fill:url(#linear-gradient);}.cls-10,.cls-4,.cls-7,.cls-9{mix-blend-mode:multiply;}.cls-4{fill:url(#linear-gradient-2);}.cls-5{fill:url(#linear-gradient-3);}.cls-6{fill:url(#linear-gradient-4);}.cls-7{fill:url(#linear-gradient-5);}.cls-8{fill:url(#linear-gradient-6);}.cls-9{fill:url(#linear-gradient-7);}.cls-10{fill:url(#linear-gradient-8);}</style><linearGradient id="linear-gradient" x1="68.12" y1="226.03" x2="99.83" y2="265.16" gradientTransform="translate(0.45 -0.44) rotate(0.06)" gradientUnits="userSpaceOnUse"><stop offset="0" stop-color="#34d399"/><stop offset="1" stop-color="#59fb67"/></linearGradient><linearGradient id="linear-gradient-2" x1="84.93" y1="255.64" x2="71.79" y2="237.35" xlink:href="#linear-gradient"/><linearGradient id="linear-gradient-3" x1="169.24" y1="187.87" x2="59.41" y2="210.81" xlink:href="#linear-gradient"/><linearGradient id="linear-gradient-4" x1="1289.47" y1="-1305.11" x2="1321.18" y2="-1265.97" gradientTransform="translate(1437.47 -1029.41) rotate(-179.94)" xlink:href="#linear-gradient"/><linearGradient id="linear-gradient-5" x1="1306.28" y1="-1275.5" x2="1293.14" y2="-1293.78" gradientTransform="translate(1437.47 -1029.41) rotate(-179.94)" xlink:href="#linear-gradient"/><linearGradient id="linear-gradient-6" x1="170.36" y1="286.66" x2="60.54" y2="309.61" xlink:href="#linear-gradient"/><linearGradient id="linear-gradient-7" x1="176.79" y1="221.7" x2="111.5" y2="167.55" xlink:href="#linear-gradient"/><linearGradient id="linear-gradient-8" x1="57.2" y1="290.73" x2="76.94" y2="312.66" xlink:href="#linear-gradient"/></defs><g class="cls-1"><g id="Layer_1" data-name="Layer 1"><path class="cls-2" d="M224.81,208.36a37.12,37.12,0,0,1,13.39,2.29,37.59,37.59,0,0,1,10.29,5.8l-4.15,6.41a34.47,34.47,0,0,0-8.78-5.13,28.68,28.68,0,0,0-10.86-2,23.47,23.47,0,0,0-6.36.82,14.47,14.47,0,0,0-5.07,2.48,11.54,11.54,0,0,0-3.37,4.29,14.28,14.28,0,0,0-1.24,6.15,12,12,0,0,0,1,5.12,9.11,9.11,0,0,0,3.2,3.67,21.72,21.72,0,0,0,5.79,2.7q3.57,1.14,8.64,2.29a71.2,71.2,0,0,1,11.47,3.37,27.55,27.55,0,0,1,7.76,4.51,15.9,15.9,0,0,1,4.39,6,20,20,0,0,1,1.39,7.71,22.53,22.53,0,0,1-1.83,9.09,19.58,19.58,0,0,1-5.23,7.08,23.85,23.85,0,0,1-8.27,4.55,34.63,34.63,0,0,1-10.87,1.58,42.84,42.84,0,0,1-15-2.49,38.84,38.84,0,0,1-11.93-7.05l4.55-6.51a29.49,29.49,0,0,0,10.19,6.37,34.22,34.22,0,0,0,12.46,2.34,26.48,26.48,0,0,0,7.19-.92,17.35,17.35,0,0,0,5.79-2.74,13,13,0,0,0,3.83-4.49,13.5,13.5,0,0,0,1.4-6.31,10.41,10.41,0,0,0-4.64-9.05q-4.65-3.27-14.78-5.45a69.84,69.84,0,0,1-11.38-3.32,25.2,25.2,0,0,1-7.49-4.4,15.14,15.14,0,0,1-4.13-5.8,20.34,20.34,0,0,1-1.28-7.6,22,22,0,0,1,1.71-8.89,18.87,18.87,0,0,1,4.87-6.72A21.11,21.11,0,0,1,215,209.8,31.39,31.39,0,0,1,224.81,208.36Z" transform="translate(-53.98 -163)"/><path class="cls-2" d="M311.58,209.8a33.9,33.9,0,0,1,10.5,1.56,24.43,24.43,0,0,1,8.32,4.5,20.25,20.25,0,0,1,5.47,7.35,26.8,26.8,0,0,1,0,20.17,20.46,20.46,0,0,1-5.43,7.34,24,24,0,0,1-8.33,4.49,34.78,34.78,0,0,1-10.56,1.54l-16.55,0,0,29.06H287.2l.08-76Zm-16.55,7,0,32.89,15.93,0q8.68,0,13.81-4.18t5.13-12.25q0-8.07-5.15-12.26T311,216.83Z" transform="translate(-53.98 -163)"/><path class="cls-2" d="M418.1,217.25l-38.16,0,0,26.58,33.71,0V251l-33.72,0,0,27.62,39,0v7.34l-46.75-.05.08-76,45.92,0Z" transform="translate(-53.98 -163)"/><path class="cls-2" d="M486.27,208.63a37.08,37.08,0,0,1,14.83,2.81,37.64,37.64,0,0,1,11.73,8.08l-5.07,5.68a30.75,30.75,0,0,0-9.35-6.68A28.53,28.53,0,0,0,486.26,216a30.07,30.07,0,0,0-12.16,2.42,28.21,28.21,0,0,0-9.46,6.67,30.4,30.4,0,0,0-6.17,10.12,37.93,37.93,0,0,0,0,25.6,31.24,31.24,0,0,0,6.15,10.14A27.16,27.16,0,0,0,474,277.6a30.56,30.56,0,0,0,12.15,2.4,28.87,28.87,0,0,0,12.57-2.68,29.47,29.47,0,0,0,9.57-7.13l5,5.9q-10.45,11.27-27.11,11.25a38.94,38.94,0,0,1-15.25-3,35.24,35.24,0,0,1-12-8.23,37.73,37.73,0,0,1-7.79-12.47,45.46,45.46,0,0,1,0-31.39A37.57,37.57,0,0,1,459,219.77a35.32,35.32,0,0,1,12-8.21A38.76,38.76,0,0,1,486.27,208.63Z" transform="translate(-53.98 -163)"/><path class="cls-2" d="M600.7,259.64a35.09,35.09,0,0,1-1.77,11.52,22.62,22.62,0,0,1-13.82,14.32,33.13,33.13,0,0,1-11.84,1.95,33.91,33.91,0,0,1-12-2,22.68,22.68,0,0,1-8.58-5.59,24,24,0,0,1-5.16-8.75,35.17,35.17,0,0,1-1.74-11.53l.05-49.54h7.75l-.05,49.12q0,9.61,4.9,15.27t14.84,5.65q9.71,0,14.64-5.62t4.92-15.26l.06-49.12h7.86Z" transform="translate(-53.98 -163)"/><path class="cls-2" d="M648.26,279l38.16,0v7.13l-45.92-.05.08-76h7.76Z" transform="translate(-53.98 -163)"/><path class="cls-2" d="M746.07,208.86h-.41L711.5,286.21h8.42l25.93-59.81,25.8,59.87H780Z" transform="translate(-53.98 -163)"/><path class="cls-2" d="M835.43,210.34a36.79,36.79,0,0,1,10.7,1.51,24.28,24.28,0,0,1,8.47,4.45,20.67,20.67,0,0,1,5.58,7.25,23,23,0,0,1,2,9.88q0,8.48-4.41,14A22.9,22.9,0,0,1,845.93,255l19.72,31.36h-9.31l-18.79-29.91-17.07,0,0,29.89h-7.86l.08-76Zm-14.9,7,0,32.06,14.38,0q8.89,0,14.12-4t5.23-12q0-8-5.26-12t-14.06-4Z" transform="translate(-53.98 -163)"/><path class="cls-2" d="M945.25,217.8l-38.16,0,0,26.58,33.72,0v7.14l-33.72,0,0,27.62,39,0v7.34l-46.75-.05.08-76,45.92.05Z" transform="translate(-53.98 -163)"/><path class="cls-3" d="M89.62,210.59,89.56,268c-7.31-.33-28.35-3.39-34-18.49v-.06a22.32,22.32,0,0,1-1.22-4.73v-.06a19.51,19.51,0,0,1-.13-2.08,1.49,1.49,0,0,1-.06-.51,77.17,77.17,0,0,1,10.59-39C71.69,207.14,80.75,209.42,89.62,210.59Z" transform="translate(-53.98 -163)"/><path class="cls-4" d="M89.61,226.13v8.35c-.13,0-.33.07-.46.07-15.41,2.89-28.56,7.54-33.62,14.92a22.32,22.32,0,0,1-1.22-4.73v-.06a19.51,19.51,0,0,1-.13-2.08c5.06-8.67,19.18-13.38,35-16.41C89.28,226.19,89.48,226.13,89.61,226.13Z" transform="translate(-53.98 -163)"/><path class="cls-5" d="M161,163l-.06,59.29c-1.34,0-3.12-.1-5.26-.1-7.4-.1-19-.2-31.65.32a261.26,261.26,0,0,0-34.42,3.62,4.13,4.13,0,0,1-.44.09c-17,3.19-31.22,8.53-35,17.26a.09.09,0,0,0-.09.09v-1.78a64.09,64.09,0,0,1,.73-10.17,76.35,76.35,0,0,1,19.12-41.79,76.42,76.42,0,0,1,51.29-25.26C136.18,163.87,148.22,163.25,161,163Z" transform="translate(-53.98 -163)"/><path class="cls-6" d="M125.35,289.43l.06-57.44c7.31.33,28.35,3.4,34,18.49v.07a21.66,21.66,0,0,1,1.23,4.72v.07c.06.65.13,1.36.13,2.07a1.57,1.57,0,0,1,.06.52,77.14,77.14,0,0,1-10.59,39C143.28,292.88,134.21,290.6,125.35,289.43Z" transform="translate(-53.98 -163)"/><path class="cls-7" d="M125.36,273.89v-8.36c.13,0,.32-.06.45-.06,15.42-2.9,28.57-7.55,33.62-14.92a21.66,21.66,0,0,1,1.23,4.72v.07c.06.65.13,1.36.13,2.07-5.06,8.67-19.18,13.38-35,16.41C125.69,273.82,125.49,273.89,125.36,273.89Z" transform="translate(-53.98 -163)"/><path class="cls-8" d="M160.87,256.43v1.78a64.09,64.09,0,0,1-.73,10.17,33.6,33.6,0,0,1-.89,5.08,45.29,45.29,0,0,1-1.17,5,67,67,0,0,1-6.79,17.29A78.28,78.28,0,0,1,141,310.26a76.71,76.71,0,0,1-51.29,25.17c-11,.79-23,1.32-35.75,1.57l.07-59.29H56.1c7,.18,20.23.37,34.94-.23a259.91,259.91,0,0,0,34.33-3.62c.09,0,.36-.09.45-.09,10.61-1.95,20.15-4.8,26.75-8.71.62-.45,1.25-.8,1.87-1.25a18.21,18.21,0,0,0,6.34-7.12v-.09C160.78,256.52,160.87,256.52,160.87,256.43Z" transform="translate(-53.98 -163)"/><path class="cls-9" d="M161,163l-.06,59.29c-1.34,0-3.12-.1-5.26-.1-7.4-.1-19-.2-31.65.32Z" transform="translate(-53.98 -163)"/><path class="cls-10" d="M91,277.49,54,337l.07-59.29H56.1C63.14,277.9,76.33,278.09,91,277.49Z" transform="translate(-53.98 -163)"/></g></g></svg>