<svg version="1.2" xmlns="http://www.w3.org/2000/svg" viewBox="0 0 1423 311" width="1423" height="311"><defs><linearGradient id="P" gradientUnits="userSpaceOnUse"/><linearGradient id="g1" x1="64.1" y1="82.4" x2="120.1" y2="151.6" href="#P"><stop stop-color="#56c694"/><stop offset="1" stop-color="#7cc85a"/></linearGradient><linearGradient id="g2" x1="25.2" y1="187.5" x2="1.9" y2="155.1" href="#P"><stop stop-color="#56c694"/><stop offset="1" stop-color="#7cc85a"/></linearGradient><linearGradient id="g3" x1="217.6" y1="102.9" x2="23.4" y2="143.4" href="#P"><stop stop-color="#56c694"/><stop offset="1" stop-color="#7cc85a"/></linearGradient><linearGradient id="g4" x1="128" y1="228.8" x2="71.9" y2="159.6" href="#P"><stop stop-color="#56c694"/><stop offset="1" stop-color="#7cc85a"/></linearGradient><linearGradient id="g5" x1="166.9" y1="123.7" x2="190.1" y2="156.1" href="#P"><stop stop-color="#56c694"/><stop offset="1" stop-color="#7cc85a"/></linearGradient><linearGradient id="g6" x1="220.3" y1="281" x2="26.1" y2="321.6" href="#P"><stop stop-color="#56c694"/><stop offset="1" stop-color="#7cc85a"/></linearGradient><linearGradient id="g7" x1="178.5" y1="153.7" x2="63" y2="58" href="#P"><stop stop-color="#56c694"/><stop offset="1" stop-color="#7cc85a"/></linearGradient><linearGradient id="g8" x1="53.2" y1="185.9" x2="88.1" y2="224.7" href="#P"><stop stop-color="#56c694"/><stop offset="1" stop-color="#7cc85a"/></linearGradient></defs><style>.a{fill:#fff}.b{fill:url(#g1)}.c{mix-blend-mode:multiply;fill:url(#g2)}.d{fill:url(#g3)}.e{fill:url(#g4)}.f{mix-blend-mode:multiply;fill:url(#g5)}.g{fill:url(#g6)}.h{mix-blend-mode:multiply;fill:url(#g7)}.i{mix-blend-mode:multiply;fill:url(#g8)}</style><path class="a" d="m298.4 95q11.5 0 20.8 3.6 9.2 3.5 16 9l-6.5 9.9q-5.9-4.8-13.6-7.9-7.7-3.2-16.9-3.2-5.3 0-9.9 1.3-4.6 1.3-7.9 3.9-3.3 2.6-5.2 6.7-1.9 4.1-1.9 9.5 0 4.7 1.5 8 1.5 3.3 5 5.7 3.5 2.4 9 4.2 5.5 1.7 13.4 3.5 10.5 2.2 17.9 5.2 7.4 3 12 7 4.7 4 6.9 9.3 2.1 5.2 2.1 11.9 0 7.8-2.8 14.2-2.8 6.4-8.1 11-5.3 4.6-12.9 7.1-7.5 2.5-16.8 2.5-13.1 0-23.4-3.9-10.4-3.9-18.6-10.9l7.1-10.2q6.4 6.3 15.8 9.9 9.4 3.6 19.4 3.7 5.9-0.1 11.1-1.5 5.3-1.4 9.1-4.3 3.7-2.8 5.9-7 2.2-4.1 2.2-9.8 0-9-7.3-14-7.2-5.1-23-8.5-10.4-2.2-17.6-5.1-7.3-2.9-11.7-6.8-4.4-4-6.4-9-2-5.1-2-11.9 0-7.7 2.6-13.8 2.7-6.1 7.6-10.4 4.9-4.4 11.8-6.6 6.9-2.3 15.3-2.3z"/><path fill-rule="evenodd" class="a" d="m433.2 97.1q8.9 0 16.4 2.4 7.4 2.4 12.9 7 5.5 4.6 8.5 11.4 3.1 6.9 3.1 15.7 0 8.9-3.1 15.7-3 6.8-8.4 11.4-5.4 4.6-13 7-7.5 2.4-16.4 2.4h-25.7v45.2h-12v-118.2zm-25.8 10.9v51.2h24.8q13.5 0 21.5-6.5 7.9-6.6 7.9-19.1 0-12.5-8-19-8.1-6.6-21.4-6.6z"/><path class="a" d="m598.8 108.5h-59.3v41.3h52.4v11.1h-52.4v43h60.6v11.4h-72.7v-118.2h71.4z"/><path class="a" d="m704.8 95q13 0 23 4.4 10.1 4.3 18.3 12.5l-7.9 8.8q-6.1-6.4-14.5-10.3-8.5-4-18.9-4-10.3 0-18.9 3.8-8.6 3.8-14.7 10.4-6.1 6.6-9.6 15.7-3.5 9.2-3.5 20 0 10.7 3.5 19.8 3.5 9.1 9.6 15.8 6.1 6.7 14.7 10.3 8.6 3.8 18.9 3.8 10.7 0 19.5-4.2 8.8-4.2 14.9-11.1l7.7 9.1q-16.3 17.6-42.1 17.6-12.9 0-23.7-4.6-10.9-4.6-18.7-12.8-7.8-8.2-12.1-19.4-4.4-11.1-4.4-24.3 0-13.2 4.4-24.5 4.3-11.2 12.1-19.4 7.8-8.2 18.7-12.8 10.8-4.6 23.7-4.6z"/><path class="a" d="m882.7 174.1q0 10-2.7 17.9-2.7 8-8.1 13.6-5.4 5.7-13.4 8.7-7.9 3.1-18.4 3.1-10.6 0-18.6-3.1-8.1-3-13.4-8.7-5.3-5.6-8-13.6-2.7-7.9-2.7-17.9v-77h12v76.4q0 14.9 7.7 23.7 7.6 8.8 23 8.8 15.1 0 22.8-8.8 7.6-8.8 7.6-23.7v-76.4h12.2z"/><path class="a" d="m956.7 204.2h59.3v11.1h-71.4v-118.2h12.1z"/><path class="a" d="m1161.4 215.3h-12.9l-40.2-93.1-40.2 93.1h-13.1l53-120.3h0.6z"/><path fill-rule="evenodd" class="a" d="m1247.5 97.1q9 0 16.6 2.3 7.7 2.4 13.2 7 5.6 4.5 8.7 11.2 3.1 6.7 3.1 15.4 0 13.1-6.8 21.7-6.8 8.5-18.4 11.9l30.7 48.7h-14.5l-29.2-46.5h-26.6v46.5h-12.2v-118.2zm-23.1 10.9v49.9h22.3q13.8 0 22-6.3 8.1-6.3 8.1-18.6 0-12.4-8.2-18.7-8.2-6.3-21.9-6.3z"/><path class="a" d="m1418.2 108.5h-59.3v41.3h52.4v11.1h-52.4v43h60.6v11.4h-72.7v-118.2h71.4z"/><path class="b" d="m64.4 85.9v101.6c-13-0.6-50.2-6-60.3-32.6v-0.2c-1-2.6-1.7-5.3-2.2-8.3v-0.1c-0.1-1.2-0.2-2.4-0.2-3.7-0.1-0.3-0.1-0.6-0.1-0.9 0-25.1 6.8-48.7 18.7-69.1 12.3 7.3 28.4 11.3 44.1 13.3z"/><path class="c" d="m64.4 113.4v14.8c-0.3 0-0.6 0.1-0.8 0.1-27.3 5.2-50.5 13.4-59.5 26.4-1-2.6-1.7-5.3-2.2-8.3v-0.1c-0.1-1.2-0.2-2.4-0.2-3.7 9-15.3 33.9-23.7 61.9-29.1 0.2 0 0.5-0.1 0.8-0.1z"/><path class="d" d="m190.4 1.6v104.9c-2.3 0-5.5-0.2-9.3-0.2-13.1-0.1-33.5-0.3-55.9 0.7-19.9 0.9-41.5 2.8-60.9 6.4-0.1 0-0.5 0.2-0.8 0.2-29.9 5.7-55.2 15.1-61.8 30.6 0 0-0.1 0-0.1 0.1v-3.1c0-6.2 0.3-12.2 1.2-18 2.1-17.3 7.4-33.6 15.6-48.4 5.1-9.2 11.1-17.8 18.2-25.5 22.5-25.3 54.4-42 90.6-44.8 19.4-1.3 40.7-2.4 63.2-2.9z"/><path class="e" d="m127.7 225.3v-101.6c12.9 0.6 50.1 6 60.2 32.6v0.2c1 2.6 1.7 5.3 2.2 8.3v0.1c0.1 1.2 0.2 2.4 0.2 3.7 0.1 0.3 0.1 0.6 0.1 0.9 0 25.1-6.7 48.7-18.6 69.1-12.4-7.3-28.4-11.3-44.1-13.3z"/><path class="f" d="m127.7 197.8v-14.8c0.2 0 0.5-0.1 0.8-0.1 27.2-5.1 50.5-13.4 59.4-26.4 1 2.6 1.7 5.3 2.2 8.3v0.1c0.1 1.2 0.2 2.4 0.2 3.7-8.9 15.3-33.9 23.7-61.8 29.1-0.3 0-0.6 0.1-0.8 0.1z"/><path class="g" d="m190.4 166.9v3.1c0 6.2-0.3 12.2-1.2 18-0.3 3-0.8 6-1.6 9-0.5 3-1.3 6-2.1 8.8-2.5 10.7-6.6 21-11.9 30.6-5.1 9.1-11.1 17.8-18.2 25.7-22.5 25.1-54.4 41.8-90.6 44.6-19.4 1.4-40.7 2.4-63.2 2.8v-104.8h3.6c12.4 0.3 35.8 0.6 61.8-0.5 19.9-0.9 41.3-2.8 60.7-6.4 0.1 0 0.6-0.2 0.8-0.2 18.7-3.5 35.6-8.5 47.3-15.4 1.1-0.8 2.2-1.5 3.3-2.2 5.2-3.7 9-7.9 11.2-12.7v-0.1c0-0.2 0.1-0.2 0.1-0.3z"/><path class="h" d="m190.4 1.6v104.9c-2.3 0-5.5-0.2-9.3-0.2-13.1-0.1-33.5-0.3-55.9 0.7z"/><path class="i" d="m67 204.2l-65.4 105.3v-104.8h3.6c12.4 0.3 35.8 0.6 61.8-0.5z"/></svg>