<svg xmlns="http://www.w3.org/2000/svg" viewBox="0 0 48 74" width="24" height="37">
	<path fill="#ffffff" d="m1.1 67.1c-0.7-2.2 0.1-4.4 0.1-4.4 0.9-2.2 2.8-3.4 3-3.3 0.1 0.1-2.2 2-1.7 3.7 0.2 0.7 0.9 1.1 1.5 1.4q0.6 0.3 1.5 0.7c5.3 2.2 14.4 2.7 20.6-2.9 6.8-6.1 8.2-17.8 2.4-24.8-4-4.8-11.6-7.4-17.6-5.1-1.6 0.6-2.9 1.5-3.7 2.3q-0.3-0.5-0.6-0.9c-1.2-1.4-5.5-6.4-5.6-13.5 0-1.2-0.1-5.2 2.1-9q2.1-3.8 5.7-6.2 3.6-2.4 8.4-3.6 4.7-1.1 10.1-1.1 5.2 0 9.2 0.6 4.1 0.6 7.5 1.9v14q-1.7-1.2-3.7-2.1-2-0.8-4.1-1.4-2.1-0.6-4.2-0.9-2-0.3-3.9-0.3-2.6 0-4.7 0.5-2.1 0.5-3.5 1.4-1.5 0.9-2.3 2.1-0.8 1.2-0.8 2.8 0 1.7 0.9 3 0.9 1.3 2.6 2.5 1.6 1.2 3.9 2.4 2.4 1.1 5.3 2.3 4 1.7 7.2 3.6 3.2 1.9 5.5 4.3 2.3 2.3 3.5 5.4 1.2 3 1.2 7.1c0 0.6-0.1 5.1-2.1 9.4-3.8 7.9-12.1 10.9-14.8 12-12.5 4.6-27.3 1.2-28.9-3.9z"/>
	<path fill="#ffffff" d="m24.5 51.3c2 0.8-2.8 2-2.2 3.6 0.7 1.5 2.8 3.6 1.8 4.3q-7.2 1.5-7.8-1.8-0.1-0.8 0-1.6c0.3-2.6 2.4-4.6 1-4.8-0.9-0.2-2.1 2.3-3.1 4.6-0.9 1.9-1.6 3.6-2.2 3.9-1.4 0.8-10.6 7-8.3 2.5q2.4-4.4 2.8-10.5l1.5-0.9 2.7-1.5h-4.5q-1.7 3.8-1.3 4.9c0.4 1-2.6 1.5-1.6-1q1.1-2.5 2.1-8.7 1.4-8 3.4-4.5 0.3 0.5 0.8 1.1c1.6-1.7 3.9-2.8 6.5-2.8 4.9 0 8.9 4 8.9 8.9 0 1.4-0.4 2.8-1 4.1q0.3 0.1 0.5 0.2zm6.3-0.9c-0.5 3.9-1.9 7.1-2.4 8.1l-1-0.2c0.3-1.6 0.9-6.2-0.2-10.8-0.8-4-2.7-6.9-5.4-8.7-2.4-1.7-4.9-2.4-7.3-1.9-1.7 0.2-2.8 0.9-3.4 1.3l-3-2.8c1-1.1 4.1-4 10-2.9 8.3 1.6 13.9 9.4 12.7 17.9z"/>
</svg>